<?xml version="1.0" encoding="UTF-8"?>
<svg width="24" height="24" viewBox="0 0 24 24" fill="none" xmlns="http://www.w3.org/2000/svg">
    <!-- Database icon -->
    <path d="M12 2C6.48 2 2 4.02 2 6.5V17.5C2 19.98 6.48 22 12 22C17.52 22 22 19.98 22 17.5V6.5C22 4.02 17.52 2 12 2Z" stroke="currentColor" stroke-width="2" stroke-linecap="round" stroke-linejoin="round"/>
    <path d="M2 12C2 14.5 6.48 16.5 12 16.5C17.52 16.5 22 14.5 22 12" stroke="currentColor" stroke-width="2" stroke-linecap="round" stroke-linejoin="round"/>
    <path d="M2 6.5C2 8.98 6.48 11 12 11C17.52 11 22 8.98 22 6.5" stroke="currentColor" stroke-width="2" stroke-linecap="round" stroke-linejoin="round"/>
    
    <!-- Arrow -->
    <path d="M16 4L20 8L16 12" stroke="currentColor" stroke-width="2" stroke-linecap="round" stroke-linejoin="round"/>
    <path d="M20 8H14" stroke="currentColor" stroke-width="2" stroke-linecap="round" stroke-linejoin="round"/>
</svg> 