<?xml version="1.0" encoding="UTF-8" standalone="no"?>
<svg width="64" height="64" viewBox="0 0 64 64" xmlns="http://www.w3.org/2000/svg">
  <defs>
    <linearGradient id="grad1" x1="0%" y1="0%" x2="100%" y2="100%">
      <stop offset="0%" style="stop-color:#9C27B0;stop-opacity:1" />
      <stop offset="100%" style="stop-color:#673AB7;stop-opacity:1" />
    </linearGradient>
  </defs>
  <rect x="4" y="4" width="56" height="56" rx="8" ry="8" fill="url(#grad1)" />
  
  <!-- 大脑轮廓 -->
  <ellipse cx="32" cy="32" r="18" rx="14" ry="18" fill="none" stroke="white" stroke-width="2" />
  
  <!-- 神经网络连接线 -->
  <line x1="18" y1="32" x2="13" y2="32" stroke="white" stroke-width="1.5" />
  <line x1="46" y1="32" x2="51" y2="32" stroke="white" stroke-width="1.5" />
  <line x1="32" y1="14" x2="32" y2="9" stroke="white" stroke-width="1.5" />
  <line x1="32" y1="50" x2="32" y2="55" stroke="white" stroke-width="1.5" />
  
  <!-- 内部神经网络线条 -->
  <line x1="19" y1="25" x2="45" y2="25" stroke="white" stroke-width="1.5" />
  <line x1="19" y1="39" x2="45" y2="39" stroke="white" stroke-width="1.5" />
  <line x1="25" y1="14" x2="25" y2="50" stroke="white" stroke-width="1.5" />
  <line x1="39" y1="14" x2="39" y2="50" stroke="white" stroke-width="1.5" />
  
  <!-- 连接点 -->
  <circle cx="32" cy="25" r="2" fill="white" />
  <circle cx="32" cy="39" r="2" fill="white" />
  <circle cx="25" cy="32" r="2" fill="white" />
  <circle cx="39" cy="32" r="2" fill="white" />
  
  <!-- 外部连接点 -->
  <circle cx="11" cy="32" r="2" fill="white" />
  <circle cx="53" cy="32" r="2" fill="white" />
  <circle cx="32" cy="7" r="2" fill="white" />
  <circle cx="32" cy="57" r="2" fill="white" />
  
  <!-- 装饰性点阵，显示数据流动感 -->
  <circle cx="25" cy="25" r="1.5" fill="white" opacity="0.9" />
  <circle cx="39" cy="25" r="1.5" fill="white" opacity="0.9" />
  <circle cx="25" cy="39" r="1.5" fill="white" opacity="0.9" />
  <circle cx="39" cy="39" r="1.5" fill="white" opacity="0.9" />
</svg> 