<?xml version="1.0" encoding="UTF-8" standalone="no"?>
<svg width="64" height="64" viewBox="0 0 64 64" xmlns="http://www.w3.org/2000/svg">
  <defs>
    <linearGradient id="grad1" x1="0%" y1="0%" x2="100%" y2="100%">
      <stop offset="0%" style="stop-color:#607D8B;stop-opacity:1" />
      <stop offset="100%" style="stop-color:#455A64;stop-opacity:1" />
    </linearGradient>
  </defs>
  <rect x="4" y="4" width="56" height="56" rx="8" ry="8" fill="url(#grad1)" />
  
  <!-- 齿轮主体 -->
  <circle cx="32" cy="32" r="12" fill="white" opacity="0.9" />
  <circle cx="32" cy="32" r="6" fill="url(#grad1)" />
  
  <!-- 齿轮的齿 -->
  <g stroke="none" fill="white">
    <!-- 上 -->
    <rect x="30" y="8" width="4" height="10" rx="1" ry="1" />
    <!-- 右上 -->
    <rect x="43.5" y="13.5" width="4" height="10" rx="1" ry="1" transform="rotate(45 45.5 15.5)" />
    <!-- 右 -->
    <rect x="46" y="30" width="10" height="4" rx="1" ry="1" />
    <!-- 右下 -->
    <rect x="43.5" y="40.5" width="4" height="10" rx="1" ry="1" transform="rotate(-45 45.5 48.5)" />
    <!-- 下 -->
    <rect x="30" y="46" width="4" height="10" rx="1" ry="1" />
    <!-- 左下 -->
    <rect x="16.5" y="40.5" width="4" height="10" rx="1" ry="1" transform="rotate(45 18.5 48.5)" />
    <!-- 左 -->
    <rect x="8" y="30" width="10" height="4" rx="1" ry="1" />
    <!-- 左上 -->
    <rect x="16.5" y="13.5" width="4" height="10" rx="1" ry="1" transform="rotate(-45 18.5 15.5)" />
  </g>
  
  <!-- 辅助线和装饰 -->
  <circle cx="32" cy="32" r="18" fill="none" stroke="white" stroke-width="1" stroke-opacity="0.3" />
  <circle cx="32" cy="32" r="24" fill="none" stroke="white" stroke-width="1" stroke-opacity="0.2" />
  
  <!-- 点缀细节，添加科技感 -->
  <circle cx="32" cy="16" r="1.5" fill="white" opacity="0.7" />
  <circle cx="32" cy="48" r="1.5" fill="white" opacity="0.7" />
  <circle cx="16" cy="32" r="1.5" fill="white" opacity="0.7" />
  <circle cx="48" cy="32" r="1.5" fill="white" opacity="0.7" />
</svg> 