<?xml version="1.0" encoding="UTF-8" standalone="no"?>
<svg width="64" height="64" viewBox="0 0 64 64" xmlns="http://www.w3.org/2000/svg">
  <defs>
    <linearGradient id="grad1" x1="0%" y1="0%" x2="100%" y2="100%">
      <stop offset="0%" style="stop-color:#0078D4;stop-opacity:1" />
      <stop offset="100%" style="stop-color:#005080;stop-opacity:1" />
    </linearGradient>
  </defs>
  <rect x="4" y="4" width="56" height="56" rx="8" ry="8" fill="url(#grad1)" />
  
  <!-- 折线图 -->
  <polyline points="10,45 20,35 30,40 40,25 50,15" fill="none" stroke="white" stroke-width="2" />
  
  <!-- 折线图的点 -->
  <circle cx="10" cy="45" r="2.5" fill="white" />
  <circle cx="20" cy="35" r="2.5" fill="white" />
  <circle cx="30" cy="40" r="2.5" fill="white" />
  <circle cx="40" cy="25" r="2.5" fill="white" />
  <circle cx="50" cy="15" r="2.5" fill="white" />
  
  <!-- 添加科技感的细节 -->
  <line x1="10" y1="50" x2="50" y2="50" stroke="white" stroke-width="1" stroke-opacity="0.3" />
  <line x1="10" y1="10" x2="10" y2="50" stroke="white" stroke-width="1" stroke-opacity="0.3" />
  
  <!-- 轴标记 -->
  <line x1="15" y1="48" x2="15" y2="52" stroke="white" stroke-width="1" stroke-opacity="0.5" />
  <line x1="25" y1="48" x2="25" y2="52" stroke="white" stroke-width="1" stroke-opacity="0.5" />
  <line x1="35" y1="48" x2="35" y2="52" stroke="white" stroke-width="1" stroke-opacity="0.5" />
  <line x1="45" y1="48" x2="45" y2="52" stroke="white" stroke-width="1" stroke-opacity="0.5" />
  
  <line x1="8" y1="40" x2="12" y2="40" stroke="white" stroke-width="1" stroke-opacity="0.5" />
  <line x1="8" y1="30" x2="12" y2="30" stroke="white" stroke-width="1" stroke-opacity="0.5" />
  <line x1="8" y1="20" x2="12" y2="20" stroke="white" stroke-width="1" stroke-opacity="0.5" />
</svg> 